<?xml version="1.0" encoding="utf-8"?>
<!-- Generator: Adobe Illustrator 17.1.0, SVG Export Plug-In . SVG Version: 6.00 Build 0)  -->
<!DOCTYPE svg PUBLIC "-//W3C//DTD SVG 1.1//EN" "http://www.w3.org/Graphics/SVG/1.1/DTD/svg11.dtd">
<svg version="1.1" id="Layer_1" xmlns="http://www.w3.org/2000/svg" xmlns:xlink="http://www.w3.org/1999/xlink" x="0px" y="0px"
	 viewBox="0 0 187.8 59" enable-background="new 0 0 187.8 59" xml:space="preserve">
<g>
	<g>
		<rect x="73.2" y="32.1" fill="#F16C2E" width="1" height="7"/>
		<rect x="73.2" y="46.1" fill="#F16C2E" width="1" height="7"/>
		<rect x="77.2" y="42.1" fill="#F16C2E" width="7" height="1"/>
		<rect x="63.2" y="42.1" fill="#F16C2E" width="7" height="1"/>
		<rect x="72.2" y="41.1" fill="#F29C79" width="3" height="3"/>
	</g>
	<path fill-rule="evenodd" clip-rule="evenodd" fill="#1F8C8C" d="M66.8,15.5c0,5.8,0,11.6,0,17.3c0.2,0,0.3,0,0.3,0
		c3.4-5.7,13.6-5.6,17.1,1.7c1.8,3.7,2,7.7,1.3,11.6c-0.3,1.8-0.8,3.6-1.7,5.1c-3.2,6-11.7,7.1-16.5,2.2c-0.3-0.3-0.6-0.7-1.1-1.1
		c0,1.4,0,2.5,0,3.8c-1.5,0-2.8,0-4.3,0c0-13.5,0-27,0-40.6C63.6,15.5,65.1,15.5,66.8,15.5z M66.7,42.8c0.1,0,0.1,0,0.2,0
		c0,0.9,0,1.8,0,2.7c0,3.4,2.2,6.1,5.5,6.7c3.5,0.7,6.4-0.8,7.7-4.2c1.2-3.1,1.3-6.2,0.5-9.4c-0.8-3.4-3.1-5.5-6.2-5.7
		c-3.1-0.2-5.8,1.5-6.9,4.8C66.8,39.3,66.9,41.1,66.7,42.8z"/>
	<path fill-rule="evenodd" clip-rule="evenodd" fill="#1F8C8C" d="M56,56.1c-4,1-6.3-0.3-6.8-3.9c-1.4,2-3.2,3.4-5.5,3.9
		c-2.9,0.7-5.8,0.8-8.6-0.5c-2.7-1.2-3.8-3.4-3.7-6.3c0.1-2.8,1.3-5,4-5.9c2.2-0.7,4.6-1,6.9-1.2c2.1-0.2,4.3,0,6.6,0
		c-0.1-2-0.1-3.8-0.4-5.7c-0.2-1.6-1.3-2.6-2.8-3.1c-1.7-0.6-3.5-0.5-5.2,0c-2.4,0.8-3.5,2.8-2.9,5.3c0.1,0.2,0.1,0.5,0.2,0.9
		c-1.3,0-2.6,0.1-3.8,0c-0.3,0-0.8-0.6-0.9-0.9c-1.1-3.4,0.6-7.1,4.1-8.5c3.8-1.6,7.7-1.7,11.6-0.2c3.3,1.3,4.8,4.1,4.9,7.5
		c0.1,4,0,7.9,0.1,11.9c0,0.7,0.1,1.3,0.2,2c0.1,0.3,0.3,0.9,0.6,0.9C56.9,52.7,55.7,54.6,56,56.1z M48.7,45.8c-2.9,0-5.8,0-8.7,0
		c-0.5,0-1,0.2-1.5,0.4c-1.4,0.5-2.2,1.6-2.2,2.9c0,1.4,0.7,2.6,2.2,3.1c1,0.3,2.1,0.5,3.2,0.5C45.3,52.5,48.8,48.9,48.7,45.8z"/>
	<path fill-rule="evenodd" clip-rule="evenodd" fill="#1F8C8C" d="M158.4,43c-5.8,0-11.5,0-17.3,0c-0.4,3.8,1.5,7.4,4.5,8.7
		c3.5,1.6,7.1,0.6,10.3-2.9c0.9,0.9,1.7,1.8,2.7,2.7c-1.9,2.8-4.6,4.2-7.9,4.8c-6.1,1.1-11.7-1.7-13.6-7.2c-0.8-2.2-1-4.6-1.1-6.9
		c-0.1-1.7,0.2-3.4,0.6-5c1.1-4.8,4.6-7.8,9.5-8.3c1.4-0.1,2.9-0.2,4.3,0.1c4.7,0.8,7.5,4.2,7.9,9.4C158.5,39.9,158.4,41.4,158.4,43
		z M153.8,39.5c0-4.3-2.3-6.7-6.2-6.5c-3.7,0.1-6.5,3.1-6.2,6.5C145.5,39.5,149.6,39.5,153.8,39.5z"/>
	<path fill-rule="evenodd" clip-rule="evenodd" fill="#1F8C8C" d="M111.2,34.1c2-4.6,6-5.7,10.4-5.1c3.9,0.5,6.7,3.3,7.2,7.5
		c0.4,3.1,0.2,6.2,0.3,9.3c0,1.3,0,2.7,0,4c0,1.2,0.2,2.4,1.8,2.6c0.2,0,0.5,0.5,0.5,0.8c0.1,0.9,0,1.8,0,2.6
		c-3.8,1.4-7-0.5-7.2-4.5c-0.2-3.3-0.1-6.7-0.1-10c0-1,0-2-0.1-3c-0.2-2.8-1.6-4.7-4.1-5.3c-2.8-0.7-5.4,0.3-6.9,2.7
		c-1,1.7-1.4,3.5-1.4,5.4c0,4.5,0,8.9,0,13.4c0,0.5,0,0.9,0,1.4c-1.6,0-3.2,0-4.9,0c0-0.5,0-1,0-1.5c0-6.2,0-12.3,0-18.5
		c0-1.5,0.1-3.1-1.9-3.4c-0.2,0-0.3-0.4-0.4-0.7c0-0.9,0-1.8,0-2.7C108.3,28.1,110.8,29.8,111.2,34.1z"/>
	<path fill-rule="evenodd" clip-rule="evenodd" fill="#1F8C8C" d="M182.5,29.1c0,1.4,0,2.6,0,4c-3.4,0-6.7,0-10.2,0c0,1,0,1.8,0,2.6
		c0,3.6,0,7.3,0.1,10.9c0,2.1,0.4,4.1,2.5,5.1c2.3,1.1,4.5,0.6,6.6-0.8c0.3-0.2,0.5-0.4,0.9-0.6c0.5,1,0.9,1.9,1.3,2.8
		c0.1,0.2-0.1,0.7-0.3,0.9c-3.2,3.1-9.9,3.3-13.2,0.4c-2.1-1.8-2.7-4.3-2.8-6.9c-0.1-4.3,0-8.6-0.1-12.9c0-0.5,0-0.9,0-1.5
		c-1.5,0-2.8,0-4.2,0c0-1.4,0-2.6,0-4c1.4,0,2.7,0,4.2,0c0-2.8,0-5.6,0-8.4c1.7,0,3.3,0,5,0c0,2.8,0,5.5,0,8.3
		C175.7,29.1,179,29.1,182.5,29.1z"/>
	<path fill-rule="evenodd" clip-rule="evenodd" fill="#1F8C8C" d="M24.1,48.7c0.8,0.8,1.6,1.5,2.3,2.3c0.1,0.1,0.2,0.3,0.4,0.4
		c-1.9,2.9-4.7,4.4-8,4.9c-6.1,1.1-11.6-1.8-13.6-7.3c-0.7-2-1-4.2-1.1-6.3C4,39.3,4.6,35.8,6.9,33c0.9-1.1,2.1-2.2,3.5-2.9
		c3.4-1.7,7.1-1.8,10.7-0.6c4.4,1.5,6.4,6,4.9,10.5c-1.4,0-2.9,0-4.2,0c-0.1-1.3,0-2.6-0.3-3.8c-0.4-1.6-1.5-2.7-3.2-3.1
		c-3.9-1.1-7.5,0.9-8.6,4.7c-0.8,2.8-0.9,5.6-0.2,8.4c0.7,3,2.5,5.1,5.6,5.9c3.2,0.7,6-0.2,8.3-2.5C23.6,49.3,23.9,49,24.1,48.7z"/>
	<path fill-rule="evenodd" clip-rule="evenodd" fill="#1F8C8C" d="M99.7,52.7c0,0.3,0,0.6,0,1c0,0.8,0,1.6,0,2.5
		c-1.3,0-2.5,0.1-3.7,0c-1.9-0.3-2.9-1.7-3.4-3.5c-0.2-0.8-0.3-1.6-0.3-2.4c0-6.8,0-13.6,0-20.4c0-0.2,0-0.4,0-0.7c1.6,0,3.3,0,5,0
		c0,0.5,0,0.9,0,1.4c0,6.3,0,12.6,0,18.9C97.4,51.7,97.6,52,99.7,52.7z"/>
	<g>
		<circle fill="#F16C2E" cx="95.1" cy="21.1" r="3.4"/>
		<path fill="#F16C2E" d="M103.3,12.8c0-0.1-0.1-0.1-0.2-0.1l-0.2-0.1c0,0-0.1,0-0.1-0.1c-4.4-4-11.2-3.9-15.5,0.4l-0.5,0.5L86.3,14
			c-0.8,0.8-0.8,2.2,0,3c0.8,0.8,2.2,0.8,3,0l1.2-1.2c2.7-2.7,7.1-2.7,9.8,0l0.9,0.8c0.8,0.8,2.2,0.8,3,0c0.4-0.4,0.6-0.9,0.6-1.5
			c0-0.6-0.2-1.1-0.6-1.5L103.3,12.8z"/>
		<path fill="#F16C2E" d="M109.2,8.6l-0.7-0.7c0,0,0,0,0,0l-0.6-0.6c-0.1-0.1-0.2-0.2-0.3-0.3c-7.2-6.4-18.3-6.2-25.3,0.6
			c0,0-0.1,0.1-0.1,0.1L80.9,9c-0.8,0.8-0.8,2,0,2.8c0.8,0.8,2,0.8,2.8,0l1.3-1.3c0,0,0,0,0,0c5.7-5.5,14.7-5.5,20.4-0.1l1,1
			c0.8,0.8,2,0.8,2.8,0C109.9,10.6,109.9,9.3,109.2,8.6z"/>
	</g>
</g>
</svg>
